<?xml version="1.0" encoding="UTF-8" standalone="no"?>
<svg
   xmlns:dc="http://purl.org/dc/elements/1.1/"
   xmlns:cc="http://creativecommons.org/ns#"
   xmlns:rdf="http://www.w3.org/1999/02/22-rdf-syntax-ns#"
   xmlns:svg="http://www.w3.org/2000/svg"
   xmlns="http://www.w3.org/2000/svg"
   xmlns:sodipodi="http://sodipodi.sourceforge.net/DTD/sodipodi-0.dtd"
   xmlns:inkscape="http://www.inkscape.org/namespaces/inkscape"
   sodipodi:docname="rfx-hunch.svg"
   inkscape:version="1.0.1 (3bc2e813f5, 2020-09-07)"
   id="svg8"
   version="1.1"
   viewBox="0 0 210 297"
   height="297mm"
   width="210mm">
  <defs
     id="defs2" />
  <sodipodi:namedview
     inkscape:window-maximized="0"
     inkscape:window-y="14"
     inkscape:window-x="2560"
     inkscape:window-height="1411"
     inkscape:window-width="2558"
     showgrid="false"
     inkscape:document-rotation="0"
     inkscape:current-layer="layer1"
     inkscape:document-units="mm"
     inkscape:cy="150.35129"
     inkscape:cx="471.21066"
     inkscape:zoom="0.7"
     inkscape:pageshadow="2"
     inkscape:pageopacity="0.0"
     borderopacity="1.0"
     bordercolor="#666666"
     pagecolor="#ffffff"
     id="base"
     inkscape:snap-object-midpoints="true" />
  <metadata
     id="metadata5">
    <rdf:RDF>
      <cc:Work
         rdf:about="">
        <dc:format>image/svg+xml</dc:format>
        <dc:type
           rdf:resource="http://purl.org/dc/dcmitype/StillImage" />
        <dc:title />
      </cc:Work>
    </rdf:RDF>
  </metadata>
  <g
     id="layer1"
     inkscape:groupmode="layer"
     inkscape:label="Layer 1">
    <g
       id="g1227"
       inkscape:export-filename="/home/andrea/hunch_logo.png"
       inkscape:export-xdpi="143.64"
       inkscape:export-ydpi="143.64">
      <g
         id="g951"
         transform="matrix(0.89503618,0,0,0.89503618,9.2069151,29.87122)">
        <path
           id="rect919"
           style="fill:#4d4d4d;fill-opacity:1;stroke:none;stroke-width:3;stroke-linejoin:round;stroke-miterlimit:4;stroke-dasharray:none;stroke-opacity:1"
           d="m 113.92755,103.39162 c -1.74967,0 -3.33283,1.15221 -4.23746,3.08405 -0.74317,1.58702 -0.92419,2.58156 -0.99272,5.44825 l -0.0532,2.22571 -0.24082,0.0605 c -1.70437,0.4295 -5.26296,0.43101 -6.68486,0.003 l -0.36846,-0.11111 -0.0169,-1.74149 c -0.0201,-2.00709 -0.0854,-2.88092 -0.27699,-3.72122 -0.075,-0.32913 -0.15833,-0.7128 -0.185,-0.85266 -0.0266,-0.13987 -0.0849,-0.2767 -0.12972,-0.30438 -0.0448,-0.0277 -0.0816,-0.11163 -0.0816,-0.18603 0,-0.23217 -0.63254,-1.48147 -0.984444,-1.94407 -0.6912,-0.90864 -1.56453,-1.53456 -2.59673,-1.86139 -0.43825,-0.13877 -1.56472,-0.12317 -2.14508,0.0295 -1.93868,0.50985 -3.18505,1.64633 -3.6277,3.30884 -0.14261,0.53566 -0.171,1.92084 -0.0476,2.32596 0.0447,0.14681 0.1346,0.45324 0.19947,0.6811 0.36486,1.28122 1.43359,2.70154 2.79829,3.71863 0.46506,0.3466 3.22535,1.73302 4.05609,2.03709 0.25318,0.0927 0.51239,0.20768 0.57568,0.2558 0.0907,0.069 0.11472,2.03451 0.11472,9.28263 v 9.19531 c -0.33353,3.65957 12.337524,4.36438 12.059714,-0.0465 l -0.003,-9.20616 -0.003,-9.20667 0.53226,-0.22066 c 1.15208,-0.4783 3.53489,-1.66763 4.07056,-2.0314 1.46735,-0.99646 2.44883,-2.34557 3.04065,-4.18011 0.0631,-0.19566 0.11697,-0.79625 0.11988,-1.3348 0.006,-1.1216 -0.18875,-1.82815 -0.73123,-2.651 -0.46543,-0.706 -1.46862,-1.45754 -2.27531,-1.70429 -0.88125,-0.26957 -1.3257,-0.35243 -1.88722,-0.35243 z m -17.832504,2.30271 c 0.94245,-0.002 1.56449,0.49999 2.14199,1.72961 0.55795,1.18802 0.68355,1.86467 0.74052,3.98684 0.0287,1.0693 0.0151,1.9183 -0.031,1.94561 -0.045,0.0267 -0.14367,0.0158 -0.21961,-0.0238 -0.076,-0.0396 -0.73908,-0.36348 -1.4733,-0.72037 -1.45944,-0.70942 -2.17649,-1.20347 -2.7404,-1.88671 -1.12821,-1.36691 -1.37641,-3.22961 -0.55501,-4.16511 0.47082,-0.53624 1.27944,-0.86399 2.13682,-0.8661 z m 17.919334,0.006 c 0.32502,0.0104 0.6698,0.0736 0.98132,0.1881 1.15138,0.42299 1.54318,0.97439 1.52963,2.15232 -0.01,0.87921 -0.21336,1.53143 -0.71056,2.28048 -0.6032,0.90879 -1.22643,1.37848 -3.02874,2.28307 -0.90077,0.4521 -1.65666,0.82217 -1.68,0.82217 -0.0236,0 -0.0452,-0.0312 -0.0481,-0.0692 -0.042,-0.54453 0.0356,-3.74332 0.0967,-3.98167 0.0453,-0.17723 0.13131,-0.52973 0.19119,-0.7829 0.16404,-0.69374 0.76271,-1.8894 1.14154,-2.27945 0.18481,-0.19031 0.48361,-0.40779 0.66403,-0.48317 0.23249,-0.0971 0.53797,-0.14005 0.86301,-0.12971 z m -5.47822,10.80037 c 0.12671,0.0436 0.13383,0.94872 0.13383,8.88783 v 8.93641 h -3.62096 c -1.99168,0 -3.64757,-0.0266 -3.67988,-0.0589 v 0 c -0.0825,-0.0825 -0.0763,-17.54796 0.007,-17.67748 0.0503,-0.0789 0.25551,-0.0696 0.80409,0.0357 1.37793,0.26459 5.31614,0.18849 6.32984,-0.12247 0.01,-0.003 0.0185,-0.004 0.0269,-0.001 z"
           sodipodi:nodetypes="csscccccssssssssscsssscccccsssssscssssssscsssssscssssscscsccccscscc" />
        <path
           id="path913"
           style="fill:none;stroke:#006680;stroke-width:3;stroke-miterlimit:4;stroke-dasharray:none;stroke-opacity:1"
           d="m 92.965354,135.35345 c -0.12573,-5.49518 -3.17645,-10.51264 -7.3195,-13.97002 -6.45472,-6.14465 -9.19974,-15.6488 -7.41887,-24.328938 2.12316,-10.95884 11.75711,-19.803693 22.784326,-21.254469 7.21523,-0.986942 14.83494,0.761172 20.61605,5.274944 8.47382,6.230582 12.55768,17.724138 9.83857,27.893063 -1.35868,5.71239 -4.8877,10.64177 -9.247,14.47692 -3.34136,3.20238 -5.24513,7.81416 -5.19,12.43788 -8.0044,-0.0162 -16.00863,0.0625 -24.013026,0.0464 -0.0169,-0.19191 -0.0337,-0.38383 -0.0505,-0.57574 z" />
        <path
           style="fill:#4d4d4d;fill-opacity:1;stroke-width:0.0920645"
           d="m 100.92771,156.52192 c -1.318374,-0.35894 -2.398714,-1.47456 -2.756874,-2.84689 -0.0529,-0.20254 -0.0963,-0.44076 -0.0966,-0.52937 -3.5e-4,-0.15202 0.38947,-0.16112 6.904354,-0.16112 h 6.90485 v 0.3179 c 0,0.17484 -0.0466,0.43377 -0.10353,0.5754 -0.53934,1.34154 -1.16051,2.02474 -2.29016,2.51886 -0.50484,0.22083 -0.51756,0.22155 -4.281,0.24229 -3.11371,0.0171 -3.86333,-0.003 -4.28102,-0.11707 z m -7.439584,-6.98355 -0.43195,-0.40805 -0.0317,-0.82257 c -0.0368,-0.95338 0.0685,-1.24263 0.59987,-1.64789 l 0.33817,-0.25794 h 11.054934 11.05493 l 0.30129,0.2149 c 0.45066,0.32143 0.66539,0.81634 0.66539,1.53361 0,0.75133 -0.15233,1.12809 -0.60796,1.50365 l -0.35464,0.29233 H 104.99825 93.920056 Z m -1.26053,-6.34903 c -0.70584,-0.31241 -1.02063,-0.96994 -0.94148,-1.96654 0.0563,-0.70919 0.35857,-1.15364 0.95978,-1.41135 0.39832,-0.17074 0.7985,-0.17628 12.726564,-0.17628 9.05705,0 12.39809,0.0281 12.62825,0.10614 0.79067,0.26818 1.10749,0.75342 1.12451,1.72229 0.0129,0.73442 -0.18238,1.19871 -0.65623,1.56014 l -0.3251,0.24798 -12.62005,0.0199 c -10.323734,0.0163 -12.670304,-0.002 -12.896244,-0.10231 z"
           id="path923"
           sodipodi:nodetypes="cscscssssccssscccsssccccscssssscsssc" />
      </g>
      <g
         id="g1118"
         transform="matrix(0.78564606,0,0,0.78564606,18.375496,34.131986)">
        <path
           style="fill:none;stroke:#ececec;stroke-width:4;stroke-linecap:butt;stroke-linejoin:miter;stroke-miterlimit:4;stroke-dasharray:none;stroke-opacity:1"
           d="M 114.2328,57.40774 139.34721,33.595249 112.17494,7.8928671"
           id="path1064"
           sodipodi:nodetypes="ccc" />
        <path
           style="fill:none;stroke:#ececec;stroke-width:4;stroke-linecap:butt;stroke-linejoin:miter;stroke-miterlimit:4;stroke-dasharray:none;stroke-opacity:1"
           d="M 135.35747,67.235115 139.34721,33.595249 149.77306,7.8928671"
           id="path1066"
           sodipodi:nodetypes="ccc" />
        <path
           style="fill:none;stroke:#ececec;stroke-width:4;stroke-linecap:butt;stroke-linejoin:miter;stroke-miterlimit:4;stroke-dasharray:none;stroke-opacity:1"
           d="M 135.35747,67.235114 166.56149,47.202391 187.37119,7.8928671"
           id="path1072"
           sodipodi:nodetypes="ccc" />
        <path
           style="fill:none;stroke:#ececec;stroke-width:4;stroke-linecap:butt;stroke-linejoin:miter;stroke-miterlimit:4;stroke-dasharray:none;stroke-opacity:1"
           d="M 153.08035,81.598219 166.56149,47.202391 149.77306,7.8928671"
           id="path1068"
           sodipodi:nodetypes="ccc" />
        <path
           style="fill:none;stroke:#ececec;stroke-width:4;stroke-linecap:butt;stroke-linejoin:miter;stroke-miterlimit:4;stroke-dasharray:none;stroke-opacity:1"
           d="M 175.00298,83.110123 166.56149,47.202391 149.77306,7.8928671"
           id="path1070"
           sodipodi:nodetypes="ccc" />
        <path
           style="fill:none;stroke:#ececec;stroke-width:4;stroke-linecap:butt;stroke-linejoin:miter;stroke-miterlimit:4;stroke-dasharray:none;stroke-opacity:1"
           d="M 114.2328,57.40774 89.118393,33.595249 112.17494,7.8928671"
           id="path1062"
           sodipodi:nodetypes="ccc" />
        <path
           style="fill:none;stroke:#ececec;stroke-width:4;stroke-linecap:butt;stroke-linejoin:miter;stroke-miterlimit:4;stroke-dasharray:none;stroke-opacity:1"
           d="M 89.118393,60.431557 V 33.595249 L 74.57682,7.8928671"
           id="path1054"
           sodipodi:nodetypes="ccc" />
        <path
           style="fill:none;stroke:#ececec;stroke-width:4;stroke-linecap:butt;stroke-linejoin:miter;stroke-miterlimit:4;stroke-dasharray:none;stroke-opacity:1"
           d="M 89.118393,60.431557 V 33.595249 L 74.57682,7.8928671"
           id="path1056"
           sodipodi:nodetypes="ccc" />
        <path
           style="fill:none;stroke:#ececec;stroke-width:4;stroke-linecap:butt;stroke-linejoin:miter;stroke-miterlimit:4;stroke-dasharray:none;stroke-opacity:1"
           d="M 70.26158,76.306549 61.904109,47.202391 74.57682,7.8928671"
           id="path1058"
           sodipodi:nodetypes="ccc" />
        <path
           style="fill:none;stroke:#ececec;stroke-width:4;stroke-linecap:butt;stroke-linejoin:miter;stroke-miterlimit:4;stroke-dasharray:none;stroke-opacity:1"
           d="M 45.735118,87.645834 61.904109,47.202391 74.57682,7.8928671"
           id="path1060"
           sodipodi:nodetypes="ccc" />
        <path
           style="fill:none;stroke:#ececec;stroke-width:4;stroke-linecap:butt;stroke-linejoin:miter;stroke-miterlimit:4;stroke-dasharray:none;stroke-opacity:1"
           d="M 89.118391,60.431555 61.904109,47.202391 36.978687,7.8928671"
           id="path1052"
           sodipodi:nodetypes="ccc" />
        <path
           style="fill:none;stroke:#006680;stroke-width:5;stroke-linecap:butt;stroke-linejoin:miter;stroke-miterlimit:4;stroke-dasharray:none;stroke-opacity:0.980392"
           d="M 45.735118,87.645834 70.26158,76.306549 89.118391,60.431555 114.2328,57.40774 l 21.12467,9.827374 17.72288,14.363105 21.92262,1.511903"
           id="path1018" />
        <circle
           style="fill:#ffffff;fill-opacity:1;stroke:#4d4d4d;stroke-width:3;stroke-linejoin:round;stroke-miterlimit:4;stroke-dasharray:none;stroke-opacity:1"
           id="path976"
           cx="45.735119"
           cy="87.645836"
           r="5.2976351" />
        <circle
           style="fill:#ffffff;fill-opacity:1;stroke:#4d4d4d;stroke-width:3;stroke-linejoin:round;stroke-miterlimit:4;stroke-dasharray:none;stroke-opacity:1"
           id="circle1000"
           cx="70.261581"
           cy="76.306549"
           r="5.2976351" />
        <circle
           style="fill:#ffffff;fill-opacity:1;stroke:#4d4d4d;stroke-width:3;stroke-linejoin:round;stroke-miterlimit:4;stroke-dasharray:none;stroke-opacity:1"
           id="circle1004"
           cx="89.118393"
           cy="60.431557"
           r="5.2976351" />
        <circle
           style="fill:#ffffff;fill-opacity:1;stroke:#4d4d4d;stroke-width:3;stroke-linejoin:round;stroke-miterlimit:4;stroke-dasharray:none;stroke-opacity:1"
           id="circle1006"
           cx="114.2328"
           cy="57.407742"
           r="5.2976351" />
        <circle
           style="fill:#ffffff;fill-opacity:1;stroke:#4d4d4d;stroke-width:3;stroke-linejoin:round;stroke-miterlimit:4;stroke-dasharray:none;stroke-opacity:1"
           id="circle1010"
           cx="135.35747"
           cy="67.235115"
           r="5.2976351" />
        <circle
           style="fill:#ffffff;fill-opacity:1;stroke:#4d4d4d;stroke-width:3;stroke-linejoin:round;stroke-miterlimit:4;stroke-dasharray:none;stroke-opacity:1"
           id="circle1014"
           cx="153.08035"
           cy="81.598221"
           r="5.2976351" />
        <circle
           style="fill:#ffffff;fill-opacity:1;stroke:#4d4d4d;stroke-width:3;stroke-linejoin:round;stroke-miterlimit:4;stroke-dasharray:none;stroke-opacity:1"
           id="circle1016"
           cx="175.00298"
           cy="83.110123"
           r="5.2976351" />
        <circle
           style="fill:#ffffff;fill-opacity:1;stroke:#cccccc;stroke-width:4.16769;stroke-linejoin:round;stroke-miterlimit:4;stroke-dasharray:none;stroke-opacity:1"
           id="circle1026"
           cx="61.90411"
           cy="47.202393"
           r="7.3596258" />
        <circle
           style="fill:#ffffff;fill-opacity:1;stroke:#cccccc;stroke-width:4.16769;stroke-linejoin:round;stroke-miterlimit:4;stroke-dasharray:none;stroke-opacity:1"
           id="circle1028"
           cx="89.118393"
           cy="33.595249"
           r="7.3596258" />
        <circle
           style="fill:#ffffff;fill-opacity:1;stroke:#cccccc;stroke-width:4.16769;stroke-linejoin:round;stroke-miterlimit:4;stroke-dasharray:none;stroke-opacity:1"
           id="circle1030"
           cx="36.978687"
           cy="7.8928671"
           r="7.3596258" />
        <circle
           style="fill:#ffffff;fill-opacity:1;stroke:#cccccc;stroke-width:4.16769;stroke-linejoin:round;stroke-miterlimit:4;stroke-dasharray:none;stroke-opacity:1"
           id="circle1032"
           cx="74.57682"
           cy="7.8928671"
           r="7.3596258" />
        <circle
           style="fill:#ffffff;fill-opacity:1;stroke:#cccccc;stroke-width:4.16769;stroke-linejoin:round;stroke-miterlimit:4;stroke-dasharray:none;stroke-opacity:1"
           id="circle1046"
           cx="112.17494"
           cy="7.8928671"
           r="7.3596258" />
        <circle
           style="fill:#ffffff;fill-opacity:1;stroke:#cccccc;stroke-width:4.16769;stroke-linejoin:round;stroke-miterlimit:4;stroke-dasharray:none;stroke-opacity:1"
           id="circle1074"
           cx="-166.56149"
           cy="47.202393"
           r="7.3596258"
           transform="scale(-1,1)" />
        <circle
           style="fill:#ffffff;fill-opacity:1;stroke:#cccccc;stroke-width:4.16769;stroke-linejoin:round;stroke-miterlimit:4;stroke-dasharray:none;stroke-opacity:1"
           id="circle1076"
           cx="-139.34721"
           cy="33.595249"
           r="7.3596258"
           transform="scale(-1,1)" />
        <circle
           style="fill:#ffffff;fill-opacity:1;stroke:#cccccc;stroke-width:4.16769;stroke-linejoin:round;stroke-miterlimit:4;stroke-dasharray:none;stroke-opacity:1"
           id="circle1078"
           cx="-187.37119"
           cy="7.8928671"
           r="7.3596258"
           transform="scale(-1,1)" />
        <circle
           style="fill:#ffffff;fill-opacity:1;stroke:#cccccc;stroke-width:4.16769;stroke-linejoin:round;stroke-miterlimit:4;stroke-dasharray:none;stroke-opacity:1"
           id="circle1080"
           cx="-149.77306"
           cy="7.8928671"
           r="7.3596258"
           transform="scale(-1,1)" />
      </g>
    </g>
  </g>
</svg>
