<?xml version="1.0" encoding="UTF-8" standalone="no"?>
<svg
   xmlns:dc="http://purl.org/dc/elements/1.1/"
   xmlns:cc="http://creativecommons.org/ns#"
   xmlns:rdf="http://www.w3.org/1999/02/22-rdf-syntax-ns#"
   xmlns:svg="http://www.w3.org/2000/svg"
   xmlns="http://www.w3.org/2000/svg"
   xmlns:sodipodi="http://sodipodi.sourceforge.net/DTD/sodipodi-0.dtd"
   xmlns:inkscape="http://www.inkscape.org/namespaces/inkscape"
   sodipodi:docname="rfx-hunch.svg"
   inkscape:version="1.0 (4035a4fb49, 2020-05-01)"
   id="svg8"
   version="1.1"
   viewBox="0 0 210 297"
   height="297mm"
   width="210mm">
  <defs
     id="defs2" />
  <sodipodi:namedview
     inkscape:window-maximized="0"
     inkscape:window-y="24"
     inkscape:window-x="2560"
     inkscape:window-height="1403"
     inkscape:window-width="2558"
     showgrid="false"
     inkscape:document-rotation="0"
     inkscape:current-layer="layer1"
     inkscape:document-units="mm"
     inkscape:cy="220.58874"
     inkscape:cx="676.7818"
     inkscape:zoom="0.49497475"
     inkscape:pageshadow="2"
     inkscape:pageopacity="0.0"
     borderopacity="1.0"
     bordercolor="#666666"
     pagecolor="#ffffff"
     id="base" />
  <metadata
     id="metadata5">
    <rdf:RDF>
      <cc:Work
         rdf:about="">
        <dc:format>image/svg+xml</dc:format>
        <dc:type
           rdf:resource="http://purl.org/dc/dcmitype/StillImage" />
        <dc:title></dc:title>
      </cc:Work>
    </rdf:RDF>
  </metadata>
  <g
     id="layer1"
     inkscape:groupmode="layer"
     inkscape:label="Layer 1">
    <g
       transform="matrix(0.55243248,0,0,0.55243248,41.126485,64.570469)"
       id="g888">
      <path
         style="fill:#006680;stroke-width:0.166653"
         d="m 107.35308,163.54549 c -2.38649,-0.64976 -4.34209,-2.66922 -4.99042,-5.15338 -0.0957,-0.36664 -0.17439,-0.79785 -0.1749,-0.95826 -6.3e-4,-0.27517 0.70501,-0.29164 12.49808,-0.29164 h 12.49899 v 0.57544 c 0,0.3165 -0.0843,0.78521 -0.1874,1.04159 -0.9763,2.42841 -2.10073,3.66512 -4.14559,4.55958 -0.91386,0.39974 -0.93689,0.40104 -7.74937,0.43858 -5.63637,0.031 -6.9933,-0.006 -7.74939,-0.21191 z m -13.466955,-12.64147 -0.781902,-0.73864 -0.05744,-1.489 c -0.06655,-1.72577 0.124053,-2.24937 1.085865,-2.98297 l 0.612159,-0.46691 h 20.011363 20.01136 l 0.5454,0.38901 c 0.81577,0.58185 1.20446,1.47772 1.20446,2.77611 0,1.36003 -0.27574,2.04203 -1.10051,2.72187 l -0.64196,0.52916 H 114.72147 94.668003 Z m -2.281782,-11.49286 c -1.277692,-0.56552 -1.847517,-1.75575 -1.704241,-3.55977 0.101957,-1.28376 0.649082,-2.0883 1.737366,-2.5548 0.721038,-0.30907 1.445427,-0.3191 23.037312,-0.3191 16.39485,0 22.44273,0.0508 22.85935,0.19214 1.43125,0.48545 2.00475,1.36381 2.03557,3.11764 0.0234,1.32943 -0.33014,2.16987 -1.18789,2.82413 l -0.5885,0.44889 -22.8445,0.0361 c -18.68777,0.0295 -22.935479,-0.004 -23.344467,-0.1852 z m 1.350783,-12.97482 c -0.05077,-0.57286 -0.139264,-1.64153 -0.196652,-2.3748 -0.208896,-2.66887 -1.200344,-6.36459 -2.484304,-9.26046 -1.991834,-4.49242 -4.940743,-8.47577 -8.997891,-12.15423 -2.012065,-1.82426 -4.469354,-4.469878 -5.976244,-6.434258 -0.872585,-1.13751 -3.277457,-4.654061 -3.277457,-4.792506 0,-0.03949 -0.286175,-0.548227 -0.635955,-1.130467 C 71.03685,89.707379 70.4849,88.668546 70.16007,87.981106 69.614728,86.826994 69.448259,86.458255 68.786964,84.939681 67.623795,82.26862 66.328327,77.43098 65.763422,73.648922 65.402852,71.234924 65.264356,65.10147 65.508148,62.34418 c 0.350844,-3.968053 1.24805,-8.033754 2.616677,-11.857485 0.669559,-1.87064 0.559955,-1.618635 2.030615,-4.668866 1.194928,-2.478333 1.955408,-3.8117 3.421817,-5.999524 3.005201,-4.483633 7.967882,-9.556076 12.19422,-12.463937 0.549959,-0.378388 1.187407,-0.839378 1.416553,-1.024421 0.229147,-0.185044 0.48005,-0.338115 0.557562,-0.340149 0.07751,-0.0019 0.339985,-0.144915 0.583285,-0.317505 0.243294,-0.172585 0.723589,-0.472561 1.06731,-0.666611 0.34372,-0.194051 0.906176,-0.514365 1.249896,-0.711811 0.343727,-0.197446 1.374894,-0.725819 2.291482,-1.174167 0.916594,-0.448342 1.796757,-0.886751 1.955919,-0.974234 0.159162,-0.08748 0.366206,-0.159061 0.460114,-0.159061 0.0939,0 0.488635,-0.145544 0.877189,-0.323426 2.368931,-1.084536 7.379423,-2.42885 11.288953,-3.028834 2.06282,-0.316573 3.12378,-0.372354 7.24942,-0.381159 3.1983,-0.0068 5.28389,0.06248 6.16618,0.204928 0.73327,0.118384 1.82068,0.293161 2.41646,0.388391 1.06372,0.170014 4.76675,1.019319 5.74954,1.318672 1.96247,0.59776 3.57335,1.185813 5.03945,1.839669 0.38855,0.173284 0.75188,0.315068 0.8074,0.315068 0.14075,0 3.57172,1.724636 4.5299,2.277039 1.35043,0.778526 4.73637,3.071898 5.88885,3.988624 4.03408,3.208889 7.00317,6.317263 9.93369,10.399662 0.91523,1.274978 1.31921,1.911387 2.43312,3.833027 3.07713,5.308443 5.15912,11.496412 6.05574,17.998554 0.39711,2.879794 0.3947,9.120325 -0.004,11.999029 -0.6393,4.608455 -1.80294,8.900199 -3.46406,12.776007 -0.85168,1.987191 -2.44446,5.083635 -3.27434,6.365504 -0.33479,0.517117 -0.69403,1.099008 -0.79832,1.293108 -0.17617,0.32786 -2.52744,3.54439 -2.7267,3.73011 -0.0492,0.0459 -0.626,0.72178 -1.28184,1.5021 -0.65584,0.78032 -2.62904,2.798138 -4.38489,4.484028 -1.75585,1.68589 -3.62499,3.59724 -4.15366,4.24744 -4.37811,5.38465 -6.87737,11.79875 -7.11665,18.26414 l -0.0709,1.91651 h -5.41589 -5.4159 l -0.003,-16.66533 -0.003,-16.665318 0.96266,-0.39966 c 2.08545,-0.865804 6.39895,-3.017946 7.36861,-3.676425 2.65618,-1.803779 4.43268,-4.246153 5.50399,-7.566989 0.11426,-0.354182 0.21208,-1.441591 0.21738,-2.416473 0.011,-2.030294 -0.34183,-3.309542 -1.32379,-4.799035 -0.84254,-1.277995 -2.65863,-2.638144 -4.11887,-3.084804 -1.59525,-0.487955 -2.39909,-0.638135 -3.41553,-0.638135 -3.16723,0 -6.03324,2.085912 -7.67078,5.582884 -1.34525,2.87279 -1.67329,4.672683 -1.79734,9.861891 l -0.0963,4.029024 -0.43539,0.109711 c -3.08522,0.777468 -9.52722,0.780032 -12.10112,0.005 l -0.66662,-0.200771 -0.0316,-3.152641 c -0.0365,-3.633182 -0.15407,-5.214592 -0.50084,-6.73568 -0.13582,-0.595788 -0.28646,-1.290397 -0.33474,-1.543586 -0.0482,-0.253183 -0.15414,-0.501339 -0.23523,-0.551458 -0.0811,-0.05014 -0.14744,-0.201319 -0.14744,-0.336004 0,-0.420269 -1.14553,-2.681971 -1.78251,-3.519358 -1.25118,-1.644807 -2.8317,-2.777843 -4.70017,-3.369462 -0.793335,-0.251192 -2.832763,-0.223428 -3.883356,0.05285 -3.50935,0.922931 -5.764904,2.980561 -6.566181,5.990001 -0.258165,0.969629 -0.309298,3.477037 -0.08586,4.210389 0.08096,0.265742 0.243307,0.82064 0.360759,1.233104 0.660413,2.31924 2.595293,4.890416 5.065671,6.731528 0.841835,0.627408 5.838217,3.136265 7.341987,3.686689 0.4583,0.16775 0.92701,0.37625 1.04158,0.46335 0.16421,0.12484 0.20832,3.68291 0.20832,16.803288 v 16.64492 h -5.402971 -5.402968 z m 15.180384,0.9352 c -0.14938,-0.14938 -0.13763,-31.764968 0.0119,-31.999428 0.0911,-0.1428 0.46249,-0.12639 1.4555,0.0643 2.49427,0.47895 9.62246,0.34071 11.45742,-0.22218 0.27637,-0.0848 0.29164,0.75786 0.29164,16.087128 v 16.1766 h -6.55503 c -3.60526,0 -6.60292,-0.0479 -6.66143,-0.10639 z M 103.3534,89.478031 c -0.13749,-0.07163 -1.33739,-0.658813 -2.66645,-1.304853 -2.641858,-1.284174 -3.940198,-2.177809 -4.960998,-3.414591 -2.042242,-2.474353 -2.49156,-5.846246 -1.004694,-7.539691 0.852259,-0.970668 2.315864,-1.563887 3.867878,-1.56771 1.706014,-0.0044 2.832104,0.90508 3.877494,3.130911 1.01001,2.150517 1.23753,3.375262 1.34064,7.216755 0.052,1.935612 0.0276,3.472257 -0.0559,3.521695 -0.0814,0.04825 -0.26053,0.0291 -0.39801,-0.04252 z m 22.32191,0.0446 c -0.0761,-0.985704 0.0638,-6.776287 0.17414,-7.207755 0.082,-0.320806 0.23779,-0.958254 0.34616,-1.416547 0.29692,-1.25578 1.38142,-3.420954 2.06714,-4.127026 0.33457,-0.344489 0.87551,-0.737994 1.2021,-0.87445 0.8417,-0.351688 2.21039,-0.308126 3.33828,0.106247 2.08418,0.765702 2.79302,1.763052 2.76849,3.895309 -0.0183,1.591532 -0.38633,2.772766 -1.28633,4.128682 -1.09194,1.645078 -2.21957,2.495113 -5.48211,4.132588 -1.63054,0.818372 -2.99919,1.487943 -3.04143,1.487943 -0.0423,0 -0.0811,-0.05625 -0.0864,-0.124991 z"
         id="path847"
         sodipodi:nodetypes="cscscsssscccsscccsssccccssssssscssscssssssssssssssssssssssssssssssssssscsssssscscccccssssssssscsccssssssscsssssssccccssssscssssssscssssssssssssssss" />
      <path
         style="fill:none;stroke:#4d4d4d;stroke-width:21.621;stroke-linecap:butt;stroke-linejoin:miter;stroke-miterlimit:4;stroke-dasharray:none;stroke-opacity:1"
         d="m 21.205466,25.721278 h 39.284929 c 28.418234,-34.3758878 77.840565,-35.3970767 107.716245,0 h 32.4874"
         id="path849"
         sodipodi:nodetypes="cccc" />
      <g
         aria-label="H"
         id="text877"
         style="font-style:normal;font-variant:normal;font-weight:normal;font-stretch:normal;font-size:235.786px;line-height:1.25;font-family:'Commodore 64';-inkscape-font-specification:'Commodore 64, ';letter-spacing:0px;word-spacing:0px;fill:#000000;fill-opacity:1;stroke:none;stroke-width:5.89466">
        <path
           d="m 175.80863,36.219581 v -76.120845 c 0,-5.883738 -0.85804,-10.602985 -2.57414,-14.157742 -1.59351,-3.554759 -3.79991,-6.25147 -6.6192,-8.090138 -2.69671,-1.961246 -5.94502,-3.248313 -9.74493,-3.861202 -3.67734,-0.61289 -7.66112,-0.919335 -11.95136,-0.919335 h -4.96441 V -82.742224 H 249.5392 v 15.812543 h -4.78054 c -4.29022,0 -8.33529,0.306445 -12.1352,0.919335 -3.67734,0.612889 -6.92565,1.899956 -9.74494,3.861202 -2.8193,1.838668 -5.0257,4.535379 -6.61921,8.090138 -1.59351,3.554757 -2.39027,8.274004 -2.39027,14.157742 V 129.74256 c 0,5.516 0.79676,9.99009 2.39027,13.42227 1.7161,3.3096 3.98378,5.82245 6.80308,7.53854 2.81928,1.71608 6.06759,2.88058 9.74493,3.49346 3.79992,0.49032 7.78369,0.73547 11.95134,0.73547 h 4.78054 v 15.81254 H 139.95459 V 154.9323 h 4.96441 c 4.29024,0 8.27402,-0.30644 11.95136,-0.91934 3.79991,-0.61288 7.04822,-1.83867 9.74493,-3.67732 2.81929,-1.96126 5.02569,-4.71925 6.6192,-8.27401 1.7161,-3.55475 2.57414,-8.274 2.57414,-14.15774 V 54.973993 m -122.455285,0 v 72.929897 c 0,5.88374 0.796762,10.60299 2.390271,14.15774 1.716097,3.55476 3.922485,6.31275 6.619195,8.27401 2.819299,1.83865 6.128904,3.06444 9.928816,3.67732 3.799912,0.6129 7.783691,0.91934 11.951337,0.91934 h 4.964408 v 15.81254 H -20.377229 V 154.9323 h 4.780541 c 4.290219,0 8.2739977,-0.30644 11.9513367,-0.91934 3.799912,-0.61288 7.109502,-1.83867 9.9288,-3.67732 2.819299,-1.96126 5.0257033,-4.71925 6.6192113,-8.27401 1.593509,-3.55475 2.390271,-8.274 2.390271,-14.15774 V -41.372198 c 0,-5.516004 -0.858041,-9.928807 -2.574138,-13.238409 -1.593508,-3.432179 -3.7999123,-6.067603 -6.6192113,-7.906271 -2.819298,-1.838669 -6.128888,-3.003157 -9.9288,-3.493468 -3.677339,-0.61289 -7.5998237,-0.919335 -11.7674697,-0.919335 h -4.780541 V -82.742224 H 89.207372 v 15.812543 h -4.964408 c -4.167646,0 -8.151425,0.306445 -11.951337,0.919335 -3.799912,0.612889 -7.109517,1.899956 -9.928816,3.861202 -2.69671,1.838668 -4.903098,4.535379 -6.619195,8.090138 -1.593509,3.554757 -2.390271,8.274004 -2.390271,14.157742 v 76.120845"
           style="font-style:normal;font-variant:normal;font-weight:normal;font-stretch:normal;font-family:'Droid Serif';-inkscape-font-specification:'Droid Serif';fill:#4d4d4d;stroke-width:9.41399"
           id="path879"
           sodipodi:nodetypes="cscccsccccsccssscscsccccscccsccsccssccccsccssscscsccccssccsc" />
      </g>
    </g>
  </g>
</svg>
